<?xml version="1.0" encoding="utf-8" standalone="no"?>
<!DOCTYPE svg PUBLIC "-//W3C//DTD SVG 1.1//EN"
  "http://www.w3.org/Graphics/SVG/1.1/DTD/svg11.dtd">
<svg height="461.42pt" version="1.1" viewBox="0 0 687.5 461.42" width="687.5pt" xmlns="http://www.w3.org/2000/svg" xmlns:xlink="http://www.w3.org/1999/xlink">
 <metadata>
  <rdf:RDF xmlns:cc="http://creativecommons.org/ns#" xmlns:dc="http://purl.org/dc/elements/1.1/" xmlns:rdf="http://www.w3.org/1999/02/22-rdf-syntax-ns#">
   <cc:Work>
    <dc:type rdf:resource="http://purl.org/dc/dcmitype/StillImage"/>
    <dc:date>2021-05-14T17:19:33.074067</dc:date>
    <dc:format>image/svg+xml</dc:format>
    <dc:creator>
     <cc:Agent>
      <dc:title>Matplotlib v3.3.2+2046.g7a0d65666, https://matplotlib.org/</dc:title>
     </cc:Agent>
    </dc:creator>
   </cc:Work>
  </rdf:RDF>
 </metadata>
 <defs>
  <style type="text/css">*{stroke-linecap:butt;stroke-linejoin:round;}</style>
 </defs>
 <g id="figure_1">
  <g id="patch_1">
   <path d="M 0 461.42 
L 687.5 461.42 
L 687.5 0 
L 0 0 
z
" style="fill:#ffffff;"/>
  </g>
  <g id="axes_1">
   <g id="patch_2">
    <path d="M 10.7 450.72 
L 680.3 450.72 
L 680.3 7.2 
L 10.7 7.2 
z
" style="fill:#ffffff;"/>
   </g>
   <g id="line2d_1">
    <path clip-path="url(#p282e3730d9)" d="M 41.136364 307.437729 
L 49.958498 286.832555 
L 58.780632 260.630915 
L 67.602767 228.832808 
L 76.424901 191.438233 
L 85.247036 148.447192 
L 94.06917 99.859685 
L 102.891304 45.67571 
L 111.713439 418.349527 
L 120.535573 352.972618 
L 129.357708 281.999243 
L 138.179842 205.429401 
L 147.001976 123.263091 
L 155.824111 35.500315 
L 164.646245 374.595331 
L 173.468379 275.639621 
L 182.290514 171.087445 
L 191.112648 60.938801 
L 199.934783 377.64795 
L 208.756917 256.306372 
L 217.579051 129.368328 
L 226.401186 429.288076 
L 235.22332 291.157098 
L 244.045455 147.429653 
L 252.867589 430.56 
L 261.689723 275.639621 
L 270.511858 115.122776 
L 279.333992 381.463722 
L 288.156126 209.753943 
L 296.978261 32.447697 
L 305.800395 281.999243 
L 314.62253 93.500063 
L 323.444664 331.858675 
L 332.266798 132.166562 
L 341.088933 359.33224 
L 349.911067 148.447192 
L 358.733202 364.419937 
L 367.555336 142.341956 
L 376.37747 347.121767 
L 385.199605 113.850852 
L 394.021739 307.437729 
L 402.843874 62.97388 
L 411.666008 245.367823 
L 420.488142 422.1653 
L 429.310277 160.91205 
L 438.132411 326.516593 
L 446.954545 54.07041 
L 455.77668 208.482019 
L 464.598814 357.297161 
L 473.420949 68.061577 
L 482.243083 205.683785 
L 491.065217 337.709527 
L 499.887352 31.684543 
L 508.709486 152.51735 
L 517.531621 267.753691 
L 526.353755 377.393565 
L 535.175889 48.982713 
L 543.998024 147.429653 
L 552.820158 240.280126 
L 561.642292 327.534132 
L 570.464427 409.191672 
L 579.286561 52.798486 
L 588.108696 123.263091 
L 596.93083 188.13123 
L 605.752964 247.402902 
L 614.575099 301.078107 
L 623.397233 349.156845 
L 632.219368 391.639117 
L 641.041502 428.524921 
L 649.863636 27.36 
" style="fill:none;stroke:#5fb7e5;stroke-linecap:square;"/>
   </g>
   <g id="PathCollection_1">
    <defs>
     <path d="M 0 5 
C 1.326016 5 2.597899 4.473168 3.535534 3.535534 
C 4.473168 2.597899 5 1.326016 5 0 
C 5 -1.326016 4.473168 -2.597899 3.535534 -3.535534 
C 2.597899 -4.473168 1.326016 -5 0 -5 
C -1.326016 -5 -2.597899 -4.473168 -3.535534 -3.535534 
C -4.473168 -2.597899 -5 -1.326016 -5 0 
C -5 1.326016 -4.473168 2.597899 -3.535534 3.535534 
C -2.597899 4.473168 -1.326016 5 0 5 
z
" id="mdf81348f47" style="stroke:#f0027f;"/>
    </defs>
    <g clip-path="url(#p282e3730d9)">
     <use style="fill:#f0027f;stroke:#f0027f;" x="41.136364" xlink:href="#mdf81348f47" y="307.437729"/>
    </g>
   </g>
   <g id="PathCollection_2">
    <defs>
     <path d="M 0 5 
C 1.326016 5 2.597899 4.473168 3.535534 3.535534 
C 4.473168 2.597899 5 1.326016 5 -0 
C 5 -1.326016 4.473168 -2.597899 3.535534 -3.535534 
C 2.597899 -4.473168 1.326016 -5 0 -5 
C -1.326016 -5 -2.597899 -4.473168 -3.535534 -3.535534 
C -4.473168 -2.597899 -5 -1.326016 -5 0 
C -5 1.326016 -4.473168 2.597899 -3.535534 3.535534 
C -2.597899 4.473168 -1.326016 5 0 5 
z
" id="C0_0_691c798077"/>
    </defs>
    <g clip-path="url(#p282e3730d9)">
     <use style="fill:#33a02c;stroke:#33a02c;" x="129.357708" xlink:href="#C0_0_691c798077" y="281.999243"/>
    </g>
    <g clip-path="url(#p282e3730d9)">
     <use style="fill:#33a02c;stroke:#33a02c;" x="217.579051" xlink:href="#C0_0_691c798077" y="129.368328"/>
    </g>
    <g clip-path="url(#p282e3730d9)">
     <use style="fill:#33a02c;stroke:#33a02c;" x="305.800395" xlink:href="#C0_0_691c798077" y="281.999243"/>
    </g>
    <g clip-path="url(#p282e3730d9)">
     <use style="fill:#33a02c;stroke:#33a02c;" x="394.021739" xlink:href="#C0_0_691c798077" y="307.437729"/>
    </g>
    <g clip-path="url(#p282e3730d9)">
     <use style="fill:#666666;stroke:#666666;" x="482.243083" xlink:href="#C0_0_691c798077" y="205.683785"/>
    </g>
   </g>
   <g id="PathCollection_3">
    <defs>
     <path d="M 0 5 
C 1.326016 5 2.597899 4.473168 3.535534 3.535534 
C 4.473168 2.597899 5 1.326016 5 0 
C 5 -1.326016 4.473168 -2.597899 3.535534 -3.535534 
C 2.597899 -4.473168 1.326016 -5 0 -5 
C -1.326016 -5 -2.597899 -4.473168 -3.535534 -3.535534 
C -4.473168 -2.597899 -5 -1.326016 -5 0 
C -5 1.326016 -4.473168 2.597899 -3.535534 3.535534 
C -2.597899 4.473168 -1.326016 5 0 5 
z
" id="m250a70aa8b" style="stroke:#666666;"/>
    </defs>
    <g clip-path="url(#p282e3730d9)">
     <use style="fill:#666666;stroke:#666666;" x="570.464427" xlink:href="#m250a70aa8b" y="409.191672"/>
    </g>
   </g>
   <g id="patch_3">
    <path d="M 10.7 450.72 
L 10.7 7.2 
" style="fill:none;stroke:#000000;stroke-linecap:square;stroke-linejoin:miter;stroke-width:0.8;"/>
   </g>
   <g id="patch_4">
    <path d="M 10.7 450.72 
L 680.3 450.72 
" style="fill:none;stroke:#000000;stroke-linecap:square;stroke-linejoin:miter;stroke-width:0.8;"/>
   </g>
   <g id="text_1">
    <g id="patch_5">
     <path d="M 54.369565 313.852728 
L 85.477125 313.852728 
Q 89.677125 313.852728 89.677125 309.652728 
L 89.677125 295.705032 
Q 89.677125 291.505032 85.477125 291.505032 
L 54.369565 291.505032 
Q 50.169565 291.505032 50.169565 295.705032 
L 50.169565 309.652728 
Q 50.169565 313.852728 54.369565 313.852728 
z
" style="fill:#f0f0f0;stroke:#000000;stroke-linejoin:miter;stroke-width:0.72;"/>
    </g>
    <!-- $(0/5)$ -->
    <g transform="translate(54.369565 306.165804)scale(0.14 -0.14)">
     <defs>
      <path d="M 1958 -1561 
C 1958 -1555 1958 -1542 1939 -1523 
C 1645 -1224 858 -407 858 1581 
C 858 3569 1632 4379 1946 4697 
C 1946 4704 1958 4717 1958 4736 
C 1958 4755 1939 4768 1914 4768 
C 1843 4768 1299 4296 986 3594 
C 666 2887 576 2199 576 1588 
C 576 1128 621 351 1005 -471 
C 1312 -1135 1837 -1600 1914 -1600 
C 1946 -1600 1958 -1587 1958 -1561 
z
" id="CMR17-28" transform="scale(0.015625)"/>
      <path d="M 2688 2025 
C 2688 2416 2682 3080 2413 3591 
C 2176 4039 1798 4198 1466 4198 
C 1158 4198 768 4058 525 3597 
C 269 3118 243 2524 243 2025 
C 243 1661 250 1106 448 619 
C 723 -39 1216 -128 1466 -128 
C 1760 -128 2208 -7 2470 600 
C 2662 1042 2688 1559 2688 2025 
z
M 1466 -26 
C 1056 -26 813 325 723 812 
C 653 1188 653 1738 653 2096 
C 653 2588 653 2997 736 3387 
C 858 3929 1216 4096 1466 4096 
C 1728 4096 2067 3923 2189 3400 
C 2272 3036 2278 2607 2278 2096 
C 2278 1680 2278 1169 2202 792 
C 2067 95 1690 -26 1466 -26 
z
" id="CMR17-30" transform="scale(0.015625)"/>
      <path d="M 2746 4562 
C 2746 4569 2784 4666 2784 4678 
C 2784 4755 2720 4800 2669 4800 
C 2637 4800 2579 4800 2528 4659 
L 384 -1363 
C 384 -1370 346 -1465 346 -1478 
C 346 -1555 410 -1600 461 -1600 
C 499 -1600 557 -1593 602 -1459 
L 2746 4562 
z
" id="CMMI12-3d" transform="scale(0.015625)"/>
      <path d="M 730 3692 
C 794 3666 1056 3584 1325 3584 
C 1920 3584 2246 3911 2432 4100 
C 2432 4157 2432 4192 2394 4192 
C 2387 4192 2374 4192 2323 4163 
C 2099 4058 1837 3973 1517 3973 
C 1325 3973 1037 3999 723 4139 
C 653 4171 640 4171 634 4171 
C 602 4171 595 4164 595 4037 
L 595 2203 
C 595 2089 595 2057 659 2057 
C 691 2057 704 2070 736 2114 
C 941 2401 1222 2522 1542 2522 
C 1766 2522 2246 2382 2246 1289 
C 2246 1085 2246 715 2054 421 
C 1894 159 1645 25 1370 25 
C 947 25 518 320 403 814 
C 429 807 480 795 506 795 
C 589 795 749 840 749 1038 
C 749 1210 627 1280 506 1280 
C 358 1280 262 1190 262 1011 
C 262 454 704 -128 1382 -128 
C 2042 -128 2669 440 2669 1264 
C 2669 2030 2170 2624 1549 2624 
C 1222 2624 947 2503 730 2274 
L 730 3692 
z
" id="CMR17-35" transform="scale(0.015625)"/>
      <path d="M 1683 1581 
C 1683 2040 1638 2817 1254 3639 
C 947 4303 422 4768 346 4768 
C 326 4768 301 4761 301 4729 
C 301 4717 307 4710 314 4697 
C 621 4378 1402 3568 1402 1584 
C 1402 -407 627 -1217 314 -1537 
C 307 -1549 301 -1556 301 -1568 
C 301 -1600 326 -1600 346 -1600 
C 416 -1600 960 -1128 1274 -426 
C 1594 281 1683 969 1683 1581 
z
" id="CMR17-29" transform="scale(0.015625)"/>
     </defs>
     <use transform="scale(0.996264)" xlink:href="#CMR17-28"/>
     <use transform="translate(35.280768 0)scale(0.996264)" xlink:href="#CMR17-30"/>
     <use transform="translate(80.971245 0)scale(0.996264)" xlink:href="#CMMI12-3d"/>
     <use transform="translate(129.746164 0)scale(0.996264)" xlink:href="#CMR17-35"/>
     <use transform="translate(175.436641 0)scale(0.996264)" xlink:href="#CMR17-29"/>
    </g>
   </g>
   <g id="text_2">
    <g id="patch_6">
     <path d="M 142.590909 288.414243 
L 173.698468 288.414243 
Q 177.898468 288.414243 177.898468 284.214243 
L 177.898468 270.266547 
Q 177.898468 266.066547 173.698468 266.066547 
L 142.590909 266.066547 
Q 138.390909 266.066547 138.390909 270.266547 
L 138.390909 284.214243 
Q 138.390909 288.414243 142.590909 288.414243 
z
" style="fill:#f0f0f0;stroke:#000000;stroke-linejoin:miter;stroke-width:0.72;"/>
    </g>
    <!-- $(1/6)$ -->
    <g transform="translate(142.590909 280.727319)scale(0.14 -0.14)">
     <defs>
      <path d="M 1702 4058 
C 1702 4192 1696 4192 1606 4192 
C 1357 3916 979 3827 621 3827 
C 602 3827 570 3827 563 3808 
C 557 3795 557 3782 557 3648 
C 755 3648 1088 3686 1344 3839 
L 1344 461 
C 1344 236 1331 160 781 160 
L 589 160 
L 589 0 
C 896 0 1216 0 1523 0 
C 1830 0 2150 0 2458 0 
L 2458 160 
L 2266 160 
C 1715 160 1702 230 1702 458 
L 1702 4058 
z
" id="CMR17-31" transform="scale(0.015625)"/>
      <path d="M 678 2176 
C 678 3690 1395 4032 1811 4032 
C 1946 4032 2272 4009 2400 3776 
C 2298 3776 2106 3776 2106 3553 
C 2106 3381 2246 3323 2336 3323 
C 2394 3323 2566 3348 2566 3560 
C 2566 3954 2246 4179 1805 4179 
C 1043 4179 243 3390 243 1984 
C 243 253 966 -128 1478 -128 
C 2099 -128 2688 427 2688 1283 
C 2688 2081 2170 2662 1517 2662 
C 1126 2662 838 2407 678 1960 
L 678 2176 
z
M 1478 25 
C 691 25 691 1200 691 1436 
C 691 1896 909 2560 1504 2560 
C 1613 2560 1926 2560 2138 2120 
C 2253 1870 2253 1609 2253 1289 
C 2253 944 2253 690 2118 434 
C 1978 171 1773 25 1478 25 
z
" id="CMR17-36" transform="scale(0.015625)"/>
     </defs>
     <use transform="scale(0.996264)" xlink:href="#CMR17-28"/>
     <use transform="translate(35.280768 0)scale(0.996264)" xlink:href="#CMR17-31"/>
     <use transform="translate(80.971245 0)scale(0.996264)" xlink:href="#CMMI12-3d"/>
     <use transform="translate(129.746164 0)scale(0.996264)" xlink:href="#CMR17-36"/>
     <use transform="translate(175.436641 0)scale(0.996264)" xlink:href="#CMR17-29"/>
    </g>
   </g>
   <g id="text_3">
    <g id="patch_7">
     <path d="M 230.812253 135.783328 
L 268.748301 135.783328 
Q 272.948301 135.783328 272.948301 131.583328 
L 272.948301 117.635632 
Q 272.948301 113.435632 268.748301 113.435632 
L 230.812253 113.435632 
Q 226.612253 113.435632 226.612253 117.635632 
L 226.612253 131.583328 
Q 226.612253 135.783328 230.812253 135.783328 
z
" style="fill:#f0f0f0;stroke:#000000;stroke-linejoin:miter;stroke-width:0.72;"/>
    </g>
    <!-- $(2/12)$ -->
    <g transform="translate(230.812253 128.096404)scale(0.14 -0.14)">
     <defs>
      <path d="M 2669 989 
L 2554 989 
C 2490 536 2438 459 2413 420 
C 2381 369 1920 369 1830 369 
L 602 369 
C 832 619 1280 1072 1824 1597 
C 2214 1967 2669 2402 2669 3035 
C 2669 3790 2067 4224 1395 4224 
C 691 4224 262 3604 262 3030 
C 262 2780 448 2748 525 2748 
C 589 2748 781 2787 781 3010 
C 781 3207 614 3264 525 3264 
C 486 3264 448 3258 422 3245 
C 544 3790 915 4058 1306 4058 
C 1862 4058 2227 3617 2227 3035 
C 2227 2479 1901 2000 1536 1584 
L 262 146 
L 262 0 
L 2515 0 
L 2669 989 
z
" id="CMR17-32" transform="scale(0.015625)"/>
     </defs>
     <use transform="scale(0.996264)" xlink:href="#CMR17-28"/>
     <use transform="translate(35.280768 0)scale(0.996264)" xlink:href="#CMR17-32"/>
     <use transform="translate(80.971245 0)scale(0.996264)" xlink:href="#CMMI12-3d"/>
     <use transform="translate(129.746164 0)scale(0.996264)" xlink:href="#CMR17-31"/>
     <use transform="translate(175.436641 0)scale(0.996264)" xlink:href="#CMR17-32"/>
     <use transform="translate(221.127118 0)scale(0.996264)" xlink:href="#CMR17-29"/>
    </g>
   </g>
   <g id="text_4">
    <g id="patch_8">
     <path d="M 319.033597 288.414243 
L 350.141156 288.414243 
Q 354.341156 288.414243 354.341156 284.214243 
L 354.341156 270.266547 
Q 354.341156 266.066547 350.141156 266.066547 
L 319.033597 266.066547 
Q 314.833597 266.066547 314.833597 270.266547 
L 314.833597 284.214243 
Q 314.833597 288.414243 319.033597 288.414243 
z
" style="fill:#f0f0f0;stroke:#000000;stroke-linejoin:miter;stroke-width:0.72;"/>
    </g>
    <!-- $(3/6)$ -->
    <g transform="translate(319.033597 280.727319)scale(0.14 -0.14)">
     <defs>
      <path d="M 1414 2157 
C 1984 2157 2234 1662 2234 1090 
C 2234 320 1824 25 1453 25 
C 1114 25 563 194 390 693 
C 422 680 454 680 486 680 
C 640 680 755 782 755 948 
C 755 1133 614 1216 486 1216 
C 378 1216 211 1165 211 926 
C 211 335 787 -128 1466 -128 
C 2176 -128 2720 430 2720 1085 
C 2720 1707 2208 2157 1600 2227 
C 2086 2328 2554 2756 2554 3329 
C 2554 3820 2048 4179 1472 4179 
C 890 4179 378 3829 378 3329 
C 378 3110 544 3072 627 3072 
C 762 3072 877 3155 877 3321 
C 877 3486 762 3569 627 3569 
C 602 3569 570 3569 544 3557 
C 730 3959 1235 4032 1459 4032 
C 1683 4032 2106 3925 2106 3320 
C 2106 3143 2080 2828 1862 2550 
C 1670 2304 1453 2304 1242 2284 
C 1210 2284 1062 2269 1037 2269 
C 992 2263 966 2257 966 2208 
C 966 2163 973 2157 1101 2157 
L 1414 2157 
z
" id="CMR17-33" transform="scale(0.015625)"/>
     </defs>
     <use transform="scale(0.996264)" xlink:href="#CMR17-28"/>
     <use transform="translate(35.280768 0)scale(0.996264)" xlink:href="#CMR17-33"/>
     <use transform="translate(80.971245 0)scale(0.996264)" xlink:href="#CMMI12-3d"/>
     <use transform="translate(129.746164 0)scale(0.996264)" xlink:href="#CMR17-36"/>
     <use transform="translate(175.436641 0)scale(0.996264)" xlink:href="#CMR17-29"/>
    </g>
   </g>
   <g id="text_5">
    <g id="patch_9">
     <path d="M 407.254941 313.852728 
L 438.3625 313.852728 
Q 442.5625 313.852728 442.5625 309.652728 
L 442.5625 295.705032 
Q 442.5625 291.505032 438.3625 291.505032 
L 407.254941 291.505032 
Q 403.054941 291.505032 403.054941 295.705032 
L 403.054941 309.652728 
Q 403.054941 313.852728 407.254941 313.852728 
z
" style="fill:#f0f0f0;stroke:#000000;stroke-linejoin:miter;stroke-width:0.72;"/>
    </g>
    <!-- $(4/5)$ -->
    <g transform="translate(407.254941 306.165804)scale(0.14 -0.14)">
     <defs>
      <path d="M 2150 4122 
C 2150 4256 2144 4256 2029 4256 
L 128 1254 
L 128 1088 
L 1779 1088 
L 1779 457 
C 1779 224 1766 160 1318 160 
L 1197 160 
L 1197 0 
C 1402 0 1747 0 1965 0 
C 2182 0 2528 0 2733 0 
L 2733 160 
L 2611 160 
C 2163 160 2150 224 2150 457 
L 2150 1088 
L 2803 1088 
L 2803 1254 
L 2150 1254 
L 2150 4122 
z
M 1798 3703 
L 1798 1254 
L 256 1254 
L 1798 3703 
z
" id="CMR17-34" transform="scale(0.015625)"/>
     </defs>
     <use transform="scale(0.996264)" xlink:href="#CMR17-28"/>
     <use transform="translate(35.280768 0)scale(0.996264)" xlink:href="#CMR17-34"/>
     <use transform="translate(80.971245 0)scale(0.996264)" xlink:href="#CMMI12-3d"/>
     <use transform="translate(129.746164 0)scale(0.996264)" xlink:href="#CMR17-35"/>
     <use transform="translate(175.436641 0)scale(0.996264)" xlink:href="#CMR17-29"/>
    </g>
   </g>
   <g id="text_6">
    <g id="patch_10">
     <path d="M 495.476285 212.098785 
L 526.583844 212.098785 
Q 530.783844 212.098785 530.783844 207.898785 
L 530.783844 193.951089 
Q 530.783844 189.751089 526.583844 189.751089 
L 495.476285 189.751089 
Q 491.276285 189.751089 491.276285 193.951089 
L 491.276285 207.898785 
Q 491.276285 212.098785 495.476285 212.098785 
z
" style="fill:#f0f0f0;stroke:#000000;stroke-linejoin:miter;stroke-width:0.72;"/>
    </g>
    <!-- $(5/9)$ -->
    <g transform="translate(495.476285 204.411861)scale(0.14 -0.14)">
     <defs>
      <path d="M 2253 1864 
C 2253 464 1670 31 1190 31 
C 1043 31 685 31 538 294 
C 704 268 826 357 826 518 
C 826 692 685 749 595 749 
C 538 749 365 723 365 506 
C 365 71 742 -128 1203 -128 
C 1939 -128 2688 674 2688 2073 
C 2688 3817 1971 4179 1485 4179 
C 851 4179 243 3628 243 2778 
C 243 1991 762 1408 1414 1408 
C 1952 1408 2189 1903 2253 2112 
L 2253 1864 
z
M 1427 1510 
C 1254 1510 1011 1542 813 1922 
C 678 2169 678 2461 678 2771 
C 678 3146 678 3405 858 3684 
C 947 3817 1114 4032 1485 4032 
C 2240 4032 2240 2885 2240 2632 
C 2240 2182 2035 1510 1427 1510 
z
" id="CMR17-39" transform="scale(0.015625)"/>
     </defs>
     <use transform="scale(0.996264)" xlink:href="#CMR17-28"/>
     <use transform="translate(35.280768 0)scale(0.996264)" xlink:href="#CMR17-35"/>
     <use transform="translate(80.971245 0)scale(0.996264)" xlink:href="#CMMI12-3d"/>
     <use transform="translate(129.746164 0)scale(0.996264)" xlink:href="#CMR17-39"/>
     <use transform="translate(175.436641 0)scale(0.996264)" xlink:href="#CMR17-29"/>
    </g>
   </g>
   <g id="text_7">
    <g id="patch_11">
     <path d="M 583.697628 415.606672 
L 614.805188 415.606672 
Q 619.005188 415.606672 619.005188 411.406672 
L 619.005188 397.458976 
Q 619.005188 393.258976 614.805188 393.258976 
L 583.697628 393.258976 
Q 579.497628 393.258976 579.497628 397.458976 
L 579.497628 411.406672 
Q 579.497628 415.606672 583.697628 415.606672 
z
" style="fill:#f0f0f0;stroke:#000000;stroke-linejoin:miter;stroke-width:0.72;"/>
    </g>
    <!-- $(6/1)$ -->
    <g transform="translate(583.697628 407.919748)scale(0.14 -0.14)">
     <use transform="scale(0.996264)" xlink:href="#CMR17-28"/>
     <use transform="translate(35.280768 0)scale(0.996264)" xlink:href="#CMR17-36"/>
     <use transform="translate(80.971245 0)scale(0.996264)" xlink:href="#CMMI12-3d"/>
     <use transform="translate(129.746164 0)scale(0.996264)" xlink:href="#CMR17-31"/>
     <use transform="translate(175.436641 0)scale(0.996264)" xlink:href="#CMR17-29"/>
    </g>
   </g>
   <g id="legend_1">
    <g id="patch_12">
     <path d="M 19.1 85.92525 
L 254.68197 85.92525 
Q 257.08197 85.92525 257.08197 83.52525 
L 257.08197 15.6 
Q 257.08197 13.2 254.68197 13.2 
L 19.1 13.2 
Q 16.7 13.2 16.7 15.6 
L 16.7 83.52525 
Q 16.7 85.92525 19.1 85.92525 
z
" style="fill:#ffffff;opacity:0.8;stroke:#cccccc;stroke-linejoin:miter;"/>
    </g>
    <g id="line2d_2">
     <path d="M 21.5 22.766376 
L 45.5 22.766376 
" style="fill:none;stroke:#5fb7e5;stroke-linecap:square;"/>
    </g>
    <g id="line2d_3"/>
    <g id="text_8">
     <!-- $P(x)$ wenn es kontinuierlich wäre -->
     <g transform="translate(55.1 26.966376)scale(0.12 -0.12)">
      <defs>
       <path d="M 1894 2023 
L 2970 2023 
C 3853 2023 4736 2673 4736 3401 
C 4736 3898 4314 4352 3507 4352 
L 1530 4352 
C 1408 4352 1350 4352 1350 4231 
C 1350 4167 1408 4167 1504 4167 
C 1894 4167 1894 4116 1894 4046 
C 1894 4034 1894 3995 1869 3899 
L 1005 472 
C 947 249 934 185 486 185 
C 365 185 301 185 301 70 
C 301 0 358 0 397 0 
C 518 0 646 0 768 0 
L 1517 0 
C 1638 0 1773 0 1894 0 
C 1946 0 2016 0 2016 121 
C 2016 185 1958 185 1862 185 
C 1478 185 1472 230 1472 293 
C 1472 325 1478 369 1485 401 
L 1894 2023 
z
M 2355 3930 
C 2413 4167 2438 4167 2688 4167 
L 3322 4167 
C 3802 4167 4198 4013 4198 3535 
C 4198 3369 4115 2827 3821 2534 
C 3712 2419 3405 2176 2822 2176 
L 1920 2176 
L 2355 3930 
z
" id="CMMI12-50" transform="scale(0.015625)"/>
       <path d="M 3034 2606 
C 2829 2567 2752 2414 2752 2293 
C 2752 2139 2874 2088 2963 2088 
C 3155 2088 3290 2254 3290 2427 
C 3290 2695 2982 2816 2714 2816 
C 2323 2816 2106 2433 2048 2312 
C 1901 2816 1504 2816 1389 2816 
C 736 2816 390 1980 390 1839 
C 390 1814 416 1782 461 1782 
C 512 1782 525 1820 538 1846 
C 755 2555 1184 2689 1370 2689 
C 1658 2689 1715 2420 1715 2267 
C 1715 2127 1677 1980 1600 1673 
L 1382 798 
C 1286 415 1101 64 762 64 
C 730 64 570 64 435 147 
C 666 192 717 383 717 460 
C 717 588 621 664 499 664 
C 346 664 179 530 179 326 
C 179 57 480 -64 755 -64 
C 1062 -64 1280 179 1414 441 
C 1517 64 1837 -64 2074 -64 
C 2726 -64 3072 773 3072 913 
C 3072 945 3046 971 3008 971 
C 2950 971 2944 939 2925 888 
C 2752 326 2381 64 2093 64 
C 1869 64 1747 230 1747 492 
C 1747 632 1773 734 1875 1156 
L 2099 2024 
C 2195 2408 2413 2689 2707 2689 
C 2720 2689 2899 2689 3034 2606 
z
" id="CMMI12-78" transform="scale(0.015625)"/>
       <path d="M 2880 2381 
C 3034 2381 3194 2381 3194 2567 
C 3194 2752 3021 2752 2931 2752 
L 2214 2752 
C 2125 2752 1952 2752 1952 2567 
C 1952 2381 2125 2381 2214 2381 
L 2515 2381 
L 2195 434 
L 2189 434 
C 2163 601 2061 958 1997 1162 
C 1882 1577 1862 1654 1651 1654 
C 1446 1654 1421 1577 1306 1168 
C 1178 734 1133 549 1114 434 
L 1107 434 
L 774 2381 
L 1075 2381 
C 1165 2381 1338 2381 1338 2567 
C 1338 2752 1165 2752 1075 2752 
L 358 2752 
C 269 2752 96 2752 96 2567 
C 96 2381 256 2381 410 2381 
L 794 210 
C 832 -13 934 -32 1082 -32 
C 1331 -32 1344 19 1472 460 
C 1530 683 1632 1034 1651 1207 
L 1658 1207 
C 1664 1123 1696 945 1830 453 
C 1958 26 1971 -32 2214 -32 
C 2323 -32 2451 -32 2496 204 
L 2880 2381 
z
" id="CMTT12-77" transform="scale(0.015625)"/>
       <path d="M 2662 1248 
C 2797 1248 2918 1248 2918 1482 
C 2918 2221 2496 2816 1696 2816 
C 954 2816 358 2177 358 1398 
C 358 594 1005 -32 1792 -32 
C 2618 -32 2918 541 2918 709 
C 2918 748 2906 891 2707 891 
C 2586 891 2547 845 2509 748 
C 2349 371 1933 339 1811 339 
C 1280 339 858 748 787 1248 
L 2662 1248 
z
M 794 1600 
C 877 2132 1293 2445 1696 2445 
C 2336 2445 2470 1913 2496 1600 
L 794 1600 
z
" id="CMTT12-65" transform="scale(0.015625)"/>
       <path d="M 2675 1879 
C 2675 2507 2381 2803 1856 2803 
C 1421 2803 1139 2560 1030 2438 
C 1030 2666 1030 2752 774 2752 
L 352 2752 
C 262 2752 96 2752 96 2567 
C 96 2381 262 2381 352 2381 
L 614 2381 
L 614 371 
L 352 371 
C 262 371 96 371 96 186 
C 96 0 262 0 352 0 
L 1293 0 
C 1382 0 1549 0 1549 186 
C 1549 371 1382 371 1293 371 
L 1030 371 
L 1030 1533 
C 1030 2155 1466 2432 1811 2432 
C 2182 2432 2259 2219 2259 1854 
L 2259 371 
L 1997 371 
C 1907 371 1741 371 1741 186 
C 1741 0 1907 0 1997 0 
L 2938 0 
C 3027 0 3194 0 3194 186 
C 3194 371 3027 371 2938 371 
L 2675 371 
L 2675 1879 
z
" id="CMTT12-6e" transform="scale(0.015625)"/>
       <path d="M 2688 2573 
C 2688 2675 2688 2816 2509 2816 
C 2355 2816 2317 2669 2317 2662 
C 2061 2816 1766 2816 1638 2816 
C 595 2816 454 2286 454 2069 
C 454 1807 608 1629 826 1507 
C 1030 1392 1216 1361 1741 1278 
C 1990 1233 2502 1150 2502 799 
C 2502 562 2285 339 1690 339 
C 1280 339 1011 499 877 960 
C 845 1049 826 1120 666 1120 
C 454 1120 454 998 454 870 
L 454 211 
C 454 108 454 -32 634 -32 
C 710 -32 768 -32 864 230 
C 1158 -32 1491 -32 1690 -32 
C 2874 -32 2874 734 2874 798 
C 2874 1461 2080 1596 1773 1640 
C 1210 1736 826 1800 826 2068 
C 826 2241 1024 2445 1626 2445 
C 2234 2445 2259 2157 2272 1990 
C 2285 1862 2400 1843 2477 1843 
C 2688 1843 2688 1958 2688 2086 
L 2688 2573 
z
" id="CMTT12-73" transform="scale(0.015625)"/>
       <path d="M 1805 1628 
L 2598 2381 
L 2790 2381 
C 2880 2381 3046 2381 3046 2567 
C 3046 2752 2880 2752 2790 2752 
L 1856 2752 
C 1766 2752 1594 2752 1594 2567 
C 1594 2381 1766 2381 1856 2381 
L 2080 2381 
L 1043 1398 
L 1043 3642 
C 1043 3840 1005 3904 787 3904 
L 397 3904 
C 307 3904 134 3904 134 3719 
C 134 3533 307 3533 397 3533 
L 685 3533 
L 685 371 
L 397 371 
C 307 371 134 371 134 186 
C 134 0 307 0 397 0 
L 1331 0 
C 1421 0 1594 0 1594 186 
C 1594 371 1421 371 1331 371 
L 1043 371 
L 1043 907 
L 1542 1379 
L 2304 371 
C 2099 371 1946 371 1946 186 
C 1946 0 2118 0 2208 0 
L 2925 0 
C 3014 0 3181 0 3181 186 
C 3181 371 3014 371 2925 371 
L 2752 371 
L 1805 1628 
z
" id="CMTT12-6b" transform="scale(0.015625)"/>
       <path d="M 2918 1385 
C 2918 2183 2336 2816 1645 2816 
C 954 2816 371 2183 371 1385 
C 371 581 960 -32 1645 -32 
C 2330 -32 2918 581 2918 1385 
z
M 1645 339 
C 1184 339 787 824 787 1430 
C 787 2023 1197 2445 1645 2445 
C 2093 2445 2502 2023 2502 1430 
C 2502 818 2106 339 1645 339 
z
" id="CMTT12-6f" transform="scale(0.015625)"/>
       <path d="M 1382 2381 
L 2419 2381 
C 2509 2381 2675 2381 2675 2567 
C 2675 2752 2509 2752 2419 2752 
L 1382 2752 
L 1382 3285 
C 1382 3402 1382 3552 1178 3552 
C 966 3552 966 3402 966 3285 
L 966 2752 
L 422 2752 
C 333 2752 160 2752 160 2567 
C 160 2381 326 2381 416 2381 
L 966 2381 
L 966 776 
C 966 184 1376 -32 1837 -32 
C 2182 -32 2816 139 2816 790 
C 2816 918 2816 1058 2605 1058 
C 2400 1058 2400 918 2400 785 
C 2394 403 2029 339 1882 339 
C 1382 339 1382 657 1382 809 
L 1382 2381 
z
" id="CMTT12-74" transform="scale(0.015625)"/>
       <path d="M 1933 3616 
C 1933 3776 1805 3904 1645 3904 
C 1485 3904 1357 3776 1357 3616 
C 1357 3456 1485 3328 1645 3328 
C 1805 3328 1933 3456 1933 3616 
z
M 832 2752 
C 742 2752 576 2752 576 2567 
C 576 2381 742 2381 832 2381 
L 1517 2381 
L 1517 371 
L 787 371 
C 698 371 525 371 525 186 
C 525 0 698 0 787 0 
L 2566 0 
C 2656 0 2822 0 2822 186 
C 2822 371 2656 371 2566 371 
L 1933 371 
L 1933 2491 
C 1933 2688 1894 2752 1677 2752 
L 832 2752 
z
" id="CMTT12-69" transform="scale(0.015625)"/>
       <path d="M 2675 2491 
C 2675 2688 2637 2752 2419 2752 
L 1997 2752 
C 1907 2752 1741 2752 1741 2567 
C 1741 2381 1907 2381 1997 2381 
L 2259 2381 
L 2259 1000 
C 2259 479 1824 339 1536 339 
C 1030 339 1030 568 1030 766 
L 1030 2491 
C 1030 2688 992 2752 774 2752 
L 352 2752 
C 262 2752 96 2752 96 2567 
C 96 2381 262 2381 352 2381 
L 614 2381 
L 614 732 
C 614 146 998 -32 1491 -32 
C 1882 -32 2125 127 2253 235 
C 2253 0 2406 0 2515 0 
L 2938 0 
C 3027 0 3194 0 3194 186 
C 3194 371 3027 371 2938 371 
L 2675 371 
L 2675 2491 
z
" id="CMTT12-75" transform="scale(0.015625)"/>
       <path d="M 1382 1212 
C 1382 1976 1920 2432 2464 2432 
C 2496 2432 2534 2432 2566 2425 
C 2586 2185 2765 2165 2810 2165 
C 2957 2165 3059 2275 3059 2418 
C 3059 2698 2790 2803 2470 2803 
C 2042 2803 1677 2607 1382 2241 
L 1382 2491 
C 1382 2688 1344 2752 1126 2752 
L 480 2752 
C 390 2752 224 2752 224 2567 
C 224 2381 390 2381 480 2381 
L 966 2381 
L 966 371 
L 480 371 
C 390 371 224 371 224 186 
C 224 0 390 0 480 0 
L 2054 0 
C 2144 0 2310 0 2310 186 
C 2310 371 2144 371 2054 371 
L 1382 371 
L 1382 1212 
z
" id="CMTT12-72" transform="scale(0.015625)"/>
       <path d="M 1856 3642 
C 1856 3840 1818 3904 1600 3904 
L 659 3904 
C 570 3904 403 3904 403 3719 
C 403 3533 570 3533 659 3533 
L 1440 3533 
L 1440 371 
L 659 371 
C 570 371 403 371 403 186 
C 403 0 570 0 659 0 
L 2637 0 
C 2726 0 2893 0 2893 186 
C 2893 371 2726 371 2637 371 
L 1856 371 
L 1856 3642 
z
" id="CMTT12-6c" transform="scale(0.015625)"/>
       <path d="M 2918 702 
C 2918 868 2758 868 2707 868 
C 2560 868 2534 817 2502 728 
C 2362 377 2048 339 1894 339 
C 1350 339 890 792 890 1385 
C 890 1711 1075 2445 1914 2445 
C 2086 2445 2221 2432 2278 2426 
C 2323 2413 2330 2405 2330 2373 
C 2349 2107 2547 2107 2586 2107 
C 2726 2107 2848 2203 2848 2375 
C 2848 2816 2202 2816 1920 2816 
C 826 2816 474 1922 474 1385 
C 474 607 1069 -32 1837 -32 
C 2694 -32 2918 600 2918 702 
z
" id="CMTT12-63" transform="scale(0.015625)"/>
       <path d="M 2675 1879 
C 2675 2507 2381 2803 1856 2803 
C 1421 2803 1139 2560 1030 2438 
L 1030 3644 
C 1030 3841 992 3904 774 3904 
L 352 3904 
C 262 3904 96 3904 96 3719 
C 96 3533 262 3533 352 3533 
L 614 3533 
L 614 371 
L 352 371 
C 262 371 96 371 96 186 
C 96 0 262 0 352 0 
L 1293 0 
C 1382 0 1549 0 1549 186 
C 1549 371 1382 371 1293 371 
L 1030 371 
L 1030 1533 
C 1030 2155 1466 2432 1811 2432 
C 2182 2432 2259 2219 2259 1854 
L 2259 371 
L 1997 371 
C 1907 371 1741 371 1741 186 
C 1741 0 1907 0 1997 0 
L 2938 0 
C 3027 0 3194 0 3194 186 
C 3194 371 3027 371 2938 371 
L 2675 371 
L 2675 1879 
z
" id="CMTT12-68" transform="scale(0.015625)"/>
       <path d="M 1293 3616 
C 1293 3776 1165 3904 1005 3904 
C 845 3904 717 3769 717 3616 
C 717 3462 845 3328 1005 3328 
C 1165 3328 1293 3456 1293 3616 
z
M 2573 3616 
C 2573 3769 2445 3904 2285 3904 
C 2125 3904 1997 3776 1997 3616 
C 1997 3456 2125 3328 2285 3328 
C 2445 3328 2573 3462 2573 3616 
z
" id="CMTT12-7f" transform="scale(0.015625)"/>
       <path d="M 2650 1816 
C 2650 2303 2285 2816 1421 2816 
C 1152 2816 531 2816 531 2380 
C 531 2210 653 2115 794 2115 
C 832 2115 1043 2115 1050 2388 
C 1050 2419 1056 2426 1190 2438 
C 1267 2445 1350 2445 1427 2445 
C 1574 2445 1792 2445 2003 2282 
C 2234 2100 2234 1916 2234 1728 
C 1856 1728 1485 1728 1088 1599 
C 768 1489 358 1256 358 816 
C 358 356 762 -32 1357 -32 
C 1562 -32 1958 0 2291 226 
C 2419 0 2739 0 2982 0 
C 3136 0 3290 0 3290 183 
C 3290 365 3123 365 3034 365 
C 2867 365 2739 378 2650 417 
L 2650 1816 
z
M 2234 851 
C 2234 704 2234 569 1971 448 
C 1747 339 1446 339 1427 339 
C 1050 339 774 544 774 806 
C 774 1184 1459 1401 2234 1401 
L 2234 851 
z
" id="CMTT12-61" transform="scale(0.015625)"/>
      </defs>
      <use transform="scale(0.996264)" xlink:href="#CMMI12-50"/>
      <use transform="translate(76.425821 0)scale(0.996264)" xlink:href="#CMR17-28"/>
      <use transform="translate(111.706589 0)scale(0.996264)" xlink:href="#CMMI12-78"/>
      <use transform="translate(167.140648 0)scale(0.996264)" xlink:href="#CMR17-29"/>
      <use transform="translate(253.687527 0)scale(0.996264)" xlink:href="#CMTT12-77"/>
      <use transform="translate(304.953638 0)scale(0.996264)" xlink:href="#CMTT12-65"/>
      <use transform="translate(356.219748 0)scale(0.996264)" xlink:href="#CMTT12-6e"/>
      <use transform="translate(407.485859 0)scale(0.996264)" xlink:href="#CMTT12-6e"/>
      <use transform="translate(510.018081 0)scale(0.996264)" xlink:href="#CMTT12-65"/>
      <use transform="translate(561.284192 0)scale(0.996264)" xlink:href="#CMTT12-73"/>
      <use transform="translate(663.816414 0)scale(0.996264)" xlink:href="#CMTT12-6b"/>
      <use transform="translate(715.082524 0)scale(0.996264)" xlink:href="#CMTT12-6f"/>
      <use transform="translate(766.348635 0)scale(0.996264)" xlink:href="#CMTT12-6e"/>
      <use transform="translate(817.614746 0)scale(0.996264)" xlink:href="#CMTT12-74"/>
      <use transform="translate(868.880857 0)scale(0.996264)" xlink:href="#CMTT12-69"/>
      <use transform="translate(920.146968 0)scale(0.996264)" xlink:href="#CMTT12-6e"/>
      <use transform="translate(971.413079 0)scale(0.996264)" xlink:href="#CMTT12-75"/>
      <use transform="translate(1022.679189 0)scale(0.996264)" xlink:href="#CMTT12-69"/>
      <use transform="translate(1073.9453 0)scale(0.996264)" xlink:href="#CMTT12-65"/>
      <use transform="translate(1125.211411 0)scale(0.996264)" xlink:href="#CMTT12-72"/>
      <use transform="translate(1176.477522 0)scale(0.996264)" xlink:href="#CMTT12-6c"/>
      <use transform="translate(1227.743633 0)scale(0.996264)" xlink:href="#CMTT12-69"/>
      <use transform="translate(1279.009744 0)scale(0.996264)" xlink:href="#CMTT12-63"/>
      <use transform="translate(1330.275855 0)scale(0.996264)" xlink:href="#CMTT12-68"/>
      <use transform="translate(1432.808076 0)scale(0.996264)" xlink:href="#CMTT12-77"/>
      <use transform="translate(1484.074187 0)scale(0.996264)" xlink:href="#CMTT12-7f"/>
      <use transform="translate(1484.074187 0)scale(0.996264)" xlink:href="#CMTT12-61"/>
      <use transform="translate(1535.340298 0)scale(0.996264)" xlink:href="#CMTT12-72"/>
      <use transform="translate(1586.606409 0)scale(0.996264)" xlink:href="#CMTT12-65"/>
     </g>
    </g>
    <g id="PathCollection_4">
     <g>
      <use style="fill:#f0027f;stroke:#f0027f;" x="33.5" xlink:href="#mdf81348f47" y="41.205168"/>
     </g>
    </g>
    <g id="text_9">
     <!-- Geheimnis $s$ -->
     <g transform="translate(55.1 44.355168)scale(0.12 -0.12)">
      <defs>
       <path d="M 2816 1357 
C 2944 1357 3110 1357 3110 1542 
C 3110 1728 2938 1728 2848 1728 
L 2131 1728 
C 2042 1728 1869 1728 1869 1542 
C 1869 1357 2042 1357 2131 1357 
L 2394 1357 
C 2362 971 2189 307 1664 307 
C 1146 307 653 1000 653 1952 
C 653 2930 1165 3603 1670 3603 
C 1978 3603 2317 3360 2400 2720 
C 2419 2560 2541 2560 2605 2560 
C 2816 2560 2816 2675 2816 2803 
L 2816 3731 
C 2816 3833 2816 3974 2637 3974 
C 2528 3974 2490 3904 2470 3872 
L 2387 3667 
C 2176 3859 1920 3974 1638 3974 
C 883 3974 237 3116 237 1958 
C 237 782 890 -64 1638 -64 
C 1914 -64 2182 51 2400 288 
C 2400 122 2400 0 2611 0 
C 2816 0 2816 134 2816 254 
L 2816 1357 
z
" id="CMTT12-47" transform="scale(0.015625)"/>
       <path d="M 2899 1943 
C 2899 2084 2899 2803 2336 2803 
C 2112 2803 1894 2700 1722 2463 
C 1683 2559 1542 2803 1235 2803 
C 947 2803 749 2613 698 2555 
C 691 2752 557 2752 442 2752 
L 250 2752 
C 160 2752 -6 2752 -6 2567 
C -6 2381 141 2381 339 2381 
L 339 371 
C 134 371 -6 371 -6 186 
C -6 0 160 0 250 0 
L 787 0 
C 877 0 1043 0 1043 186 
C 1043 371 896 371 698 371 
L 698 1552 
C 698 2091 928 2432 1210 2432 
C 1389 2432 1440 2207 1440 1905 
L 1440 371 
C 1331 371 1158 371 1158 186 
C 1158 0 1331 0 1421 0 
L 1888 0 
C 1978 0 2144 0 2144 186 
C 2144 371 1997 371 1798 371 
L 1798 1552 
C 1798 2091 2029 2432 2310 2432 
C 2490 2432 2541 2207 2541 1905 
L 2541 371 
C 2432 371 2259 371 2259 186 
C 2259 0 2432 0 2522 0 
L 2989 0 
C 3078 0 3245 0 3245 186 
C 3245 371 3098 371 2899 371 
L 2899 1943 
z
" id="CMTT12-6d" transform="scale(0.015625)"/>
       <path d="M 1459 1280 
C 1568 1261 1741 1223 1779 1216 
C 1862 1192 2150 1090 2150 783 
C 2150 586 1971 70 1229 70 
C 1094 70 614 70 486 436 
C 742 404 870 603 870 745 
C 870 880 781 950 653 950 
C 512 950 326 841 326 552 
C 326 173 710 -64 1222 -64 
C 2195 -64 2483 651 2483 984 
C 2483 1079 2483 1258 2278 1462 
C 2118 1616 1965 1648 1619 1718 
C 1446 1756 1171 1814 1171 2101 
C 1171 2229 1286 2689 1894 2689 
C 2163 2689 2426 2589 2490 2368 
C 2208 2368 2195 2125 2195 2119 
C 2195 1984 2317 1946 2374 1946 
C 2464 1946 2643 2015 2643 2281 
C 2643 2545 2400 2816 1901 2816 
C 1062 2816 838 2160 838 1899 
C 838 1414 1312 1312 1459 1280 
z
" id="CMMI12-73" transform="scale(0.015625)"/>
      </defs>
      <use transform="scale(0.996264)" xlink:href="#CMTT12-47"/>
      <use transform="translate(51.266111 0)scale(0.996264)" xlink:href="#CMTT12-65"/>
      <use transform="translate(102.532222 0)scale(0.996264)" xlink:href="#CMTT12-68"/>
      <use transform="translate(153.798333 0)scale(0.996264)" xlink:href="#CMTT12-65"/>
      <use transform="translate(205.064443 0)scale(0.996264)" xlink:href="#CMTT12-69"/>
      <use transform="translate(256.330554 0)scale(0.996264)" xlink:href="#CMTT12-6d"/>
      <use transform="translate(307.596665 0)scale(0.996264)" xlink:href="#CMTT12-6e"/>
      <use transform="translate(358.862776 0)scale(0.996264)" xlink:href="#CMTT12-69"/>
      <use transform="translate(410.128887 0)scale(0.996264)" xlink:href="#CMTT12-73"/>
      <use transform="translate(512.661108 0)scale(0.996264)" xlink:href="#CMMI12-73"/>
     </g>
    </g>
    <g id="PathCollection_5">
     <path d="M 33.5 63.261862 
C 34.826016 63.261862 36.097899 62.73503 37.035534 61.797396 
C 37.973168 60.859761 38.5 59.587878 38.5 58.261862 
C 38.5 56.935847 37.973168 55.663963 37.035534 54.726328 
C 36.097899 53.788694 34.826016 53.261862 33.5 53.261862 
C 32.173985 53.261862 30.902101 53.788694 29.964466 54.726328 
C 29.026832 55.663963 28.5 56.935847 28.5 58.261862 
C 28.5 59.587878 29.026832 60.859761 29.964466 61.797396 
C 30.902101 62.73503 32.173985 63.261862 33.5 63.261862 
z
" style="fill:#33a02c;stroke:#33a02c;"/>
    </g>
    <g id="text_10">
     <!-- Shares -->
     <g transform="translate(55.1 61.411862)scale(0.12 -0.12)">
      <defs>
       <path d="M 2797 3757 
C 2797 3859 2797 4000 2618 4000 
C 2483 4000 2470 3949 2394 3680 
C 2080 3955 1715 4000 1491 4000 
C 813 4000 326 3514 326 2951 
C 326 2573 550 2323 589 2285 
C 858 2016 966 1991 1638 1831 
C 2118 1722 2227 1696 2387 1517 
C 2502 1376 2566 1216 2566 1037 
C 2566 691 2291 307 1786 307 
C 1235 307 774 544 742 1107 
C 736 1203 730 1312 538 1312 
C 326 1312 326 1191 326 1063 
L 326 179 
C 326 77 326 -64 506 -64 
C 640 -64 653 -13 730 256 
C 1082 -19 1523 -64 1786 -64 
C 2509 -64 2963 493 2963 1063 
C 2963 1511 2688 1792 2669 1818 
C 2413 2080 2291 2106 1645 2259 
C 1498 2298 1248 2355 1197 2368 
C 934 2464 723 2688 723 2976 
C 723 3315 1043 3629 1485 3629 
C 1965 3629 2291 3373 2374 2829 
C 2394 2707 2406 2624 2586 2624 
C 2797 2624 2797 2739 2797 2867 
L 2797 3757 
z
" id="CMTT12-53" transform="scale(0.015625)"/>
      </defs>
      <use transform="scale(0.996264)" xlink:href="#CMTT12-53"/>
      <use transform="translate(51.266111 0)scale(0.996264)" xlink:href="#CMTT12-68"/>
      <use transform="translate(102.532222 0)scale(0.996264)" xlink:href="#CMTT12-61"/>
      <use transform="translate(153.798333 0)scale(0.996264)" xlink:href="#CMTT12-72"/>
      <use transform="translate(205.064443 0)scale(0.996264)" xlink:href="#CMTT12-65"/>
      <use transform="translate(256.330554 0)scale(0.996264)" xlink:href="#CMTT12-73"/>
     </g>
    </g>
    <g id="PathCollection_6">
     <g>
      <use style="fill:#666666;stroke:#666666;" x="33.5" xlink:href="#m250a70aa8b" y="75.318556"/>
     </g>
    </g>
    <g id="text_11">
     <!-- Weitere Punkte -->
     <g transform="translate(55.1 78.468556)scale(0.12 -0.12)">
      <defs>
       <path d="M 2989 3533 
C 3034 3533 3219 3533 3219 3719 
C 3219 3904 3046 3904 2957 3904 
L 2483 3904 
C 2394 3904 2221 3904 2221 3719 
C 2221 3533 2394 3533 2483 3533 
L 2630 3533 
L 2355 1478 
C 2310 1116 2253 723 2246 482 
L 2240 482 
C 2208 932 1907 2177 1907 2188 
C 1862 2354 1702 2354 1645 2354 
C 1587 2354 1453 2354 1395 2220 
C 1370 2164 1082 907 1050 482 
L 1043 482 
C 1037 653 1024 742 992 995 
L 666 3533 
L 806 3533 
C 896 3533 1069 3533 1069 3719 
C 1069 3904 896 3904 806 3904 
L 333 3904 
C 243 3904 70 3904 70 3719 
C 70 3533 256 3533 294 3533 
L 301 3533 
L 762 216 
C 781 89 794 -32 1011 -32 
C 1075 -32 1210 -32 1267 115 
C 1280 152 1613 1593 1638 1903 
L 1645 1903 
C 1670 1612 2003 152 2029 95 
C 2093 -32 2214 -32 2278 -32 
C 2496 -32 2509 95 2528 210 
L 2989 3533 
z
" id="CMTT12-57" transform="scale(0.015625)"/>
       <path d="M 1030 1600 
L 1824 1600 
C 2566 1600 3014 2184 3014 2750 
C 3014 3340 2554 3904 1824 3904 
L 442 3904 
C 352 3904 179 3904 179 3719 
C 179 3533 352 3533 442 3533 
L 614 3533 
L 614 371 
L 442 371 
C 352 371 179 371 179 186 
C 179 0 352 0 442 0 
L 1203 0 
C 1293 0 1466 0 1466 186 
C 1466 371 1293 371 1203 371 
L 1030 371 
L 1030 1600 
z
M 1030 3533 
L 1709 3533 
C 2323 3533 2598 3090 2598 2755 
C 2598 2395 2310 1971 1709 1971 
L 1030 1971 
L 1030 3533 
z
" id="CMTT12-50" transform="scale(0.015625)"/>
      </defs>
      <use transform="scale(0.996264)" xlink:href="#CMTT12-57"/>
      <use transform="translate(51.266111 0)scale(0.996264)" xlink:href="#CMTT12-65"/>
      <use transform="translate(102.532222 0)scale(0.996264)" xlink:href="#CMTT12-69"/>
      <use transform="translate(153.798333 0)scale(0.996264)" xlink:href="#CMTT12-74"/>
      <use transform="translate(205.064443 0)scale(0.996264)" xlink:href="#CMTT12-65"/>
      <use transform="translate(256.330554 0)scale(0.996264)" xlink:href="#CMTT12-72"/>
      <use transform="translate(307.596665 0)scale(0.996264)" xlink:href="#CMTT12-65"/>
      <use transform="translate(410.128887 0)scale(0.996264)" xlink:href="#CMTT12-50"/>
      <use transform="translate(461.394998 0)scale(0.996264)" xlink:href="#CMTT12-75"/>
      <use transform="translate(512.661108 0)scale(0.996264)" xlink:href="#CMTT12-6e"/>
      <use transform="translate(563.927219 0)scale(0.996264)" xlink:href="#CMTT12-6b"/>
      <use transform="translate(615.19333 0)scale(0.996264)" xlink:href="#CMTT12-74"/>
      <use transform="translate(666.459441 0)scale(0.996264)" xlink:href="#CMTT12-65"/>
     </g>
    </g>
   </g>
  </g>
 </g>
 <defs>
  <clipPath id="p282e3730d9">
   <rect height="443.52" width="669.6" x="10.7" y="7.2"/>
  </clipPath>
 </defs>
</svg>
